<svg width="32" height="32" viewBox="0 0 32 32" fill="none" xmlns="http://www.w3.org/2000/svg">
    <g clip-path="url(#clip0_1_876)">
        <g clip-path="url(#clip1_1_876)">
            <path d="M21.9865 9.76347H27.5421V11.9857H21.9865V9.76347ZM19.7643 15.319H27.5421V17.5412H19.7643V15.319ZM23.0977 20.8746H27.5421V23.0968H23.0977V20.8746ZM3.09766 26.4301C3.09766 24.0727 4.03416 21.8117 5.70115 20.1447C7.36814 18.4778 9.62906 17.5412 11.9865 17.5412C14.344 17.5412 16.6049 18.4778 18.2719 20.1447C19.9389 21.8117 20.8754 24.0727 20.8754 26.4301H18.6532C18.6532 24.662 17.9508 22.9663 16.7006 21.7161C15.4503 20.4658 13.7547 19.7635 11.9865 19.7635C10.2184 19.7635 8.52274 20.4658 7.2725 21.7161C6.02226 22.9663 5.31988 24.662 5.31988 26.4301H3.09766ZM11.9865 16.4301C8.30321 16.4301 5.31988 13.4468 5.31988 9.76347C5.31988 6.08013 8.30321 3.0968 11.9865 3.0968C15.6699 3.0968 18.6532 6.08013 18.6532 9.76347C18.6532 13.4468 15.6699 16.4301 11.9865 16.4301ZM11.9865 14.2079C14.4421 14.2079 16.431 12.219 16.431 9.76347C16.431 7.30791 14.4421 5.31902 11.9865 5.31902C9.53099 5.31902 7.5421 7.30791 7.5421 9.76347C7.5421 12.219 9.53099 14.2079 11.9865 14.2079Z" fill="#27AE60"/>
        </g>
    </g>
    <defs>
        <clipPath id="clip0_1_876">
            <rect width="32" height="32" fill="white"/>
        </clipPath>
        <clipPath id="clip1_1_876">
            <rect width="26.6667" height="26.6667" fill="white" transform="translate(1.89258 3.0968)"/>
        </clipPath>
    </defs>
</svg>
