<svg width="32" height="32" viewBox="0 0 32 32" fill="none" xmlns="http://www.w3.org/2000/svg">
    <path d="M15.9988 29.3335C9.37144 29.3335 3.99886 23.961 3.99886 17.3335C3.99886 10.7061 9.37144 5.33351 15.9988 5.33351C22.6263 5.33351 27.9988 10.7061 27.9988 17.3335C27.9988 23.961 22.6263 29.3335 15.9988 29.3335ZM15.9988 26.6668C21.1535 26.6668 25.3321 22.4882 25.3321 17.3335C25.3321 12.1788 21.1535 8.00018 15.9988 8.00018C10.8442 8.00018 6.66552 12.1788 6.66552 17.3335C6.66552 22.4882 10.8442 26.6668 15.9988 26.6668ZM17.3321 17.3335H21.3321V20.0002H14.6655V10.6668H17.3321V17.3335ZM2.32812 8.37682L7.04218 3.66278L8.92779 5.54839L4.21375 10.2624L2.32812 8.37682ZM24.9556 3.66278L29.6696 8.37682L27.784 10.2624L23.0699 5.54839L24.9556 3.66278Z" fill="#27AE60"/>
</svg>
