<svg width="33" height="32" viewBox="0 0 33 32" fill="none" xmlns="http://www.w3.org/2000/svg">
    <g clip-path="url(#clip0_1_889)">
        <path d="M4.14 30.82C3.95161 30.8184 3.76583 30.7758 3.59552 30.6953C3.4252 30.6147 3.27443 30.4982 3.15363 30.3536C3.03284 30.209 2.94491 30.0399 2.89593 29.858C2.84696 29.6761 2.83811 29.4857 2.87 29.3L3.33 26.64L1.39 24.76C1.21846 24.5904 1.09748 24.3765 1.04059 24.1421C0.983695 23.9077 0.993134 23.6621 1.06785 23.4328C1.14257 23.2034 1.27961 22.9994 1.46366 22.8435C1.64771 22.6876 1.8715 22.586 2.11 22.55L4.78 22.16L6 19.75C6.10852 19.5355 6.27438 19.3553 6.47916 19.2294C6.68394 19.1035 6.91962 19.0369 7.16 19.0369C7.40039 19.0369 7.63606 19.1035 7.84084 19.2294C8.04562 19.3553 8.21149 19.5355 8.32 19.75L9.51 22.17L12.18 22.56C12.4185 22.596 12.6423 22.6976 12.8263 22.8535C13.0104 23.0094 13.1474 23.2134 13.2222 23.4428C13.2969 23.6721 13.3063 23.9177 13.2494 24.1521C13.1925 24.3865 13.0715 24.6004 12.9 24.77L10.97 26.65L11.43 29.31C11.4701 29.5482 11.443 29.7929 11.3518 30.0166C11.2606 30.2402 11.1089 30.4341 10.9136 30.5764C10.7184 30.7186 10.4874 30.8037 10.2466 30.822C10.0057 30.8403 9.76449 30.7911 9.55 30.68L7.13 29.41L4.75 30.67C4.56199 30.7691 4.35254 30.8206 4.14 30.82ZM7.13 27.32C7.33921 27.3206 7.54512 27.3721 7.73 27.47L9.18 28.23L8.9 26.61C8.86313 26.4027 8.87757 26.1895 8.94206 25.989C9.00656 25.7886 9.11915 25.6069 9.27 25.46L10.44 24.32L8.82 24.08C8.60749 24.0539 8.40481 23.9754 8.23023 23.8514C8.05565 23.7275 7.91467 23.562 7.82 23.37L7.1 21.9L6.37 23.37C6.27533 23.562 6.13435 23.7275 5.95977 23.8514C5.7852 23.9754 5.58251 24.0539 5.37 24.08L3.75 24.32L5 25.47C5.15085 25.6169 5.26344 25.7986 5.32794 25.999C5.39244 26.1995 5.40688 26.4127 5.37 26.62L5.09 28.23L6.54 27.47C6.72202 27.374 6.92424 27.3226 7.13 27.32ZM25.78 22.26C25.5292 22.2573 25.2826 22.1956 25.06 22.08L19.91 19.37L14.76 22.08C14.4953 22.2177 14.1971 22.2776 13.8998 22.2528C13.6025 22.228 13.3182 22.1196 13.08 21.94C12.845 21.7637 12.6641 21.5249 12.5581 21.2509C12.452 20.9769 12.425 20.6786 12.48 20.39L13.48 14.68L12.71 13.93C12.5238 13.7426 12.4192 13.4892 12.4192 13.225C12.4192 12.9608 12.5238 12.7074 12.71 12.52C12.8974 12.3338 13.1508 12.2292 13.415 12.2292C13.6792 12.2292 13.9326 12.3338 14.12 12.52L15.06 13.43C15.2473 13.6124 15.3857 13.8389 15.4626 14.0888C15.5395 14.3387 15.5524 14.6039 15.5 14.86L14.64 19.93L19.23 17.51C19.4579 17.3892 19.712 17.326 19.97 17.326C20.228 17.326 20.4821 17.3892 20.71 17.51L25.3 19.93L24.42 14.81C24.3758 14.5544 24.3956 14.2919 24.4776 14.0459C24.5596 13.7998 24.7013 13.5779 24.89 13.4L28.57 9.8L23.4 9C23.1434 8.96233 22.8999 8.86244 22.6907 8.70905C22.4815 8.55567 22.3131 8.35344 22.2 8.12001L19.91 3.52001L17.62 8.17001C17.5002 8.38963 17.3315 8.57873 17.1268 8.72266C16.9222 8.86659 16.6872 8.96149 16.44 9L11.29 9.74L11.63 10.08C11.8163 10.2674 11.9208 10.5208 11.9208 10.785C11.9208 11.0492 11.8163 11.3026 11.63 11.49C11.537 11.5837 11.4264 11.6581 11.3046 11.7089C11.1827 11.7597 11.052 11.7858 10.92 11.7858C10.788 11.7858 10.6573 11.7597 10.5354 11.7089C10.4136 11.6581 10.303 11.5837 10.21 11.49L9.28 10.57C9.08219 10.3661 8.94261 10.113 8.87578 9.83686C8.80895 9.56075 8.81731 9.27178 8.9 9C8.98974 8.72212 9.15519 8.47477 9.37778 8.28575C9.60036 8.09673 9.87125 7.97353 10.16 7.93001L15.92 7.10001L18.5 1.87001C18.6309 1.60661 18.8326 1.38496 19.0826 1.23002C19.3326 1.07507 19.6209 0.992981 19.915 0.992981C20.2091 0.992981 20.4974 1.07507 20.7474 1.23002C20.9974 1.38496 21.1991 1.60661 21.33 1.87001L23.9 7.09001L29.64 7.93001C29.9332 7.96774 30.2094 8.08852 30.4362 8.2781C30.663 8.46769 30.8309 8.71817 30.92 9C31.0152 9.28322 31.0282 9.58762 30.9574 9.8779C30.8866 10.1682 30.7349 10.4324 30.52 10.64L26.37 14.7L27.37 20.42C27.4094 20.6486 27.3983 20.883 27.3375 21.1068C27.2767 21.3306 27.1677 21.5384 27.0181 21.7156C26.8685 21.8928 26.682 22.0352 26.4716 22.1327C26.2611 22.2302 26.0319 22.2805 25.8 22.28L25.78 22.26Z" fill="#27AE60"/>
    </g>
    <defs>
        <clipPath id="clip0_1_889">
            <rect width="32" height="32" fill="white" transform="translate(0.25)"/>
        </clipPath>
    </defs>
</svg>
